<?xml version="1.0" encoding="utf-8"?>
<!-- Generator: Adobe Illustrator 23.1.0, SVG Export Plug-In . SVG Version: 6.00 Build 0)  -->
<svg version="1.1" id="Layer_1" xmlns="http://www.w3.org/2000/svg" xmlns:xlink="http://www.w3.org/1999/xlink" x="0px" y="0px"
	 viewBox="0 0 197.8 102.2" style="enable-background:new 0 0 197.8 102.2;" xml:space="preserve">
<style type="text/css">
	.st0{fill:#FFFFFF;}
</style>
<title>chif m primary logo white text</title>
<path class="st0" d="M10,82.3v-1.9h7.3c0.1,2.2-1.2,4.3-3.2,5.2c-2.3,1.2-5.1,0.8-7-1c-2.3-2.1-2.4-5.7-0.2-8
	C7,76.5,7,76.5,7.1,76.4c1.1-1.1,2.6-1.7,4.2-1.7c1.2,0,2.3,0.3,3.3,1c1,0.6,1.7,1.4,2.1,2.5h-2.5c-0.7-1-1.8-1.6-3-1.5
	c-1,0-2,0.4-2.7,1.1c-0.7,0.7-1.1,1.7-1.1,2.8c0,1,0.4,2,1.1,2.7c0.7,0.7,1.8,1.1,2.8,1.1c0.7,0,1.4-0.2,1.9-0.6
	c0.6-0.4,1.1-0.9,1.4-1.5H10z"/>
<path class="st0" d="M32.1,86V74.9h3.4c1-0.1,2,0.2,2.8,0.8c0.8,0.6,1.2,1.6,1.2,2.6c0,1-0.4,2.1-1.2,2.8c-0.5,0.4-1.1,0.7-1.8,0.8
	l3,4.1h-2.5l-3-4.3V86L32.1,86z M34.2,80.2h1.3c0.5,0,1-0.1,1.5-0.5c0.4-0.3,0.6-0.8,0.5-1.2c0-0.5-0.2-0.9-0.5-1.2
	c-0.4-0.3-0.9-0.5-1.4-0.5h-1.3V80.2z"/>
<path class="st0" d="M59.7,74.7c1.5,0,3,0.6,4.1,1.7c2.3,2.2,2.3,5.9,0,8.2c0,0,0,0,0,0c-2.2,2.3-5.9,2.3-8.2,0.1
	c-1.1-1.1-1.8-2.7-1.8-4.2c0-1.5,0.6-3,1.7-4C56.6,75.3,58.1,74.6,59.7,74.7z M59.7,76.6c-1,0-2,0.4-2.7,1.1
	c-0.7,0.7-1.1,1.7-1.1,2.7c0,1,0.4,2,1.1,2.8c1.4,1.5,3.8,1.5,5.2,0.1c0,0,0.1-0.1,0.1-0.1c1.4-1.5,1.4-3.9,0-5.4
	C61.7,77,60.7,76.6,59.7,76.6z"/>
<path class="st0" d="M80.4,74.9h2.1V82c0,0.5,0.1,1.1,0.3,1.6c0.3,0.5,0.9,0.8,1.6,0.8c0.6,0,1.2-0.3,1.6-0.8c0.3-0.5,0.4-1,0.3-1.6
	v-7.1h2.1V82c0.1,1-0.2,2-0.8,2.8c-0.8,1-1.9,1.6-3.2,1.5c-0.7,0-1.3-0.2-1.9-0.4c-0.6-0.3-1.1-0.7-1.4-1.2
	c-0.5-0.8-0.7-1.7-0.7-2.6L80.4,74.9z"/>
<path class="st0" d="M103.6,86V74.9h2.8c0.5,0,1,0,1.5,0.1c0.5,0.1,0.9,0.2,1.3,0.5c1,0.6,1.5,1.7,1.5,2.8c0.1,1.2-0.5,2.3-1.5,3
	c-0.4,0.3-0.9,0.4-1.4,0.5c-0.2,0-0.8,0-1.5,0h-0.7V86L103.6,86z M105.7,79.8h0.7c0.5,0,0.9,0,1.3-0.2c0.3-0.1,0.5-0.3,0.7-0.6
	c0.2-0.3,0.3-0.6,0.3-0.9c0-0.6-0.4-1.2-1-1.3c-0.4-0.1-0.9-0.1-1.3-0.1h-0.7V79.8z"/>
<path class="st0" d="M174.6,9.5c0.5-0.4,1.3-0.4,1.8,0c18.4,13.2,26,36.9,18.6,58.3c-0.3,0.8-1.3,1.2-2.1,0.9
	c-0.7-0.3-1.1-1.1-0.9-1.9c6.9-20.1-0.1-42.3-17.4-54.7c-0.7-0.5-0.9-1.5-0.4-2.3c0,0,0,0,0,0C174.3,9.7,174.4,9.6,174.6,9.5z"/>
<path class="st0" d="M147.8,0.3c0.3-0.2,0.6-0.3,0.9-0.3c5.9,0.2,11.6,1.5,17.1,3.7c0.8,0.3,1.2,1.3,0.9,2.1s-1.3,1.2-2.1,0.9
	c-5.1-2.1-10.5-3.2-16-3.4c-0.9,0-1.6-0.8-1.6-1.6C147,1,147.3,0.5,147.8,0.3L147.8,0.3z"/>
<path class="st0" d="M122.5,93.4c0.5-0.3,1.1-0.3,1.6-0.1c13.1,6.9,28.6,7.5,42.2,1.4c0.8-0.4,1.8,0,2.1,0.8s0,1.8-0.8,2.1l0,0
	c-14.4,6.4-31,5.9-45-1.5c-0.8-0.4-1.1-1.4-0.7-2.2C122.1,93.8,122.3,93.6,122.5,93.4L122.5,93.4z"/>
<path class="st0" d="M192.6,66c0.4-0.3,0.9-0.3,1.4-0.2c0.8,0.3,1.3,1.2,1,2c-3.4,9.9-9.7,18.5-18.2,24.6c-0.7,0.5-1.7,0.4-2.3-0.4
	c-0.5-0.7-0.4-1.7,0.4-2.3c7.9-5.7,13.9-13.8,17.1-23C192,66.5,192.3,66.2,192.6,66z"/>
<path class="st0" d="M118.2,83.3c0.6-0.4,1.4-0.3,1.9,0.1c5.2,4.3,11.4,7.3,18,8.7c0.9,0.2,1.4,1,1.2,1.9s-1,1.4-1.9,1.2
	c-7.1-1.5-13.8-4.7-19.4-9.3c-0.7-0.6-0.8-1.6-0.2-2.3C117.9,83.5,118,83.4,118.2,83.3z"/>
<path class="st0" d="M188.7,42.4c0.2-0.1,0.4-0.2,0.6-0.2c0.9-0.2,1.7,0.4,1.9,1.3c0,0,0,0,0,0c4.2,24.6-12.3,47.9-36.9,52.1
	c-1.8,0.3-3.6,0.5-5.4,0.6c-0.9,0-1.6-0.6-1.7-1.5s0.6-1.6,1.5-1.7l0,0c23.1-1.1,40.9-20.8,39.8-43.9c-0.1-1.7-0.3-3.3-0.5-5
	C187.9,43.4,188.1,42.8,188.7,42.4z"/>
<path class="st0" d="M121.9,13.4c20.8-13.7,48.8-7.9,62.5,13c1.2,1.8,2.2,3.7,3.2,5.7c0.5,0.8,0.2,1.7-0.5,2.2s-1.7,0.2-2.2-0.5
	c-0.1-0.1-0.1-0.2-0.2-0.3c-0.9-1.8-1.9-3.6-3-5.3C168.9,8.8,143,3.4,123.6,16.2c-3.3,2.2-6.4,4.9-8.9,7.9c-0.6,0.7-1.6,0.8-2.3,0.2
	c-0.7-0.6-0.8-1.6-0.2-2.3C115,18.7,118.3,15.8,121.9,13.4z"/>
<path class="st0" d="M134.7,85.4c0.4-0.3,0.9-0.3,1.4-0.2c9.5,3,19.7,1.9,28.4-3c0.8-0.4,1.8-0.2,2.2,0.6c0,0,0,0,0,0
	c0.4,0.8,0.2,1.7-0.6,2.2c0,0,0,0,0,0c-9.4,5.3-20.6,6.5-30.9,3.3c-0.8-0.3-1.3-1.2-1.1-2C134.1,86,134.4,85.6,134.7,85.4z"/>
<path class="st0" d="M170,21.3c0.6-0.4,1.4-0.3,1.9,0.1c16.4,13.9,18.4,38.5,4.5,54.9c-0.6,0.7-1.6,0.7-2.3,0.1
	c-0.6-0.6-0.7-1.5-0.2-2.2c10.2-12.1,11.2-29.5,2.6-42.7c-1.9-2.9-4.1-5.4-6.7-7.6c-0.7-0.6-0.8-1.6-0.2-2.3
	C169.8,21.4,169.9,21.3,170,21.3z"/>
<path class="st0" d="M128.6,16.6l0.1-0.1c10.6-5.5,23.1-5.9,34-0.9c0.8,0.4,1.2,1.3,0.8,2.1c-0.4,0.8-1.3,1.2-2.1,0.8l0,0
	c-10-4.5-21.5-4.2-31.2,0.9c-0.8,0.4-1.8,0-2.2-0.8C127.7,17.9,127.9,17,128.6,16.6L128.6,16.6z"/>
<path class="st0" d="M174.2,63.3c0.8-0.5,1.7-0.3,2.2,0.5c0.3,0.5,0.3,1,0.1,1.5c-4.8,10.1-14.4,17.1-25.5,18.6
	c-0.9,0.1-1.7-0.5-1.8-1.4c-0.1-0.9,0.5-1.7,1.4-1.8c10-1.3,18.6-7.6,23-16.7C173.7,63.6,173.9,63.4,174.2,63.3z"/>
<path class="st0" d="M128.5,23.5c15.3-10,35.8-5.8,45.8,9.4c3,4.6,4.9,9.9,5.3,15.4c0,0.9-0.7,1.6-1.6,1.6c-0.8,0-1.5-0.6-1.6-1.4
	c-1.4-16.4-15.8-28.6-32.3-27.2c-4.9,0.4-9.7,2.1-13.9,4.8c-2.1,1.4-4,3-5.7,4.9c-0.6,0.6-1.7,0.6-2.3,0c-0.6-0.6-0.6-1.5-0.1-2.2
	C124.1,26.8,126.2,25,128.5,23.5z"/>
<path class="st0" d="M132,28.7c3.3-2.2,7.1-3.6,11.1-4.2c0.9-0.1,1.7,0.5,1.8,1.4c0.1,0.9-0.5,1.7-1.4,1.8l0,0
	c-3.5,0.5-6.8,1.7-9.8,3.7c-0.7,0.5-1.7,0.3-2.2-0.5C131,30.2,131.2,29.2,132,28.7z"/>
<path class="st0" d="M132.1,70.9c0.5-0.3,1.2-0.3,1.8,0c7.1,4.5,16,5,23.5,1.2c0.8-0.4,1.8-0.1,2.2,0.7c0.4,0.8,0.1,1.8-0.7,2.2
	c-8.5,4.4-18.7,3.9-26.7-1.3c-0.7-0.5-1-1.5-0.5-2.2C131.8,71.2,132,71.1,132.1,70.9z"/>
<path class="st0" d="M168.9,39.7c0.1-0.1,0.2-0.1,0.2-0.1c0.8-0.4,1.8,0,2.1,0.8c0,0,0,0,0,0c4.3,9.8,2.3,21.2-4.9,29
	c-0.6,0.7-1.6,0.8-2.3,0.2s-0.8-1.6-0.2-2.3c0-0.1,0.1-0.1,0.1-0.1c6.4-6.9,8.1-16.9,4.3-25.5C168,40.9,168.2,40.1,168.9,39.7z"/>
<path class="st0" d="M148.7,24.7c0.3-0.2,0.7-0.3,1.1-0.3c6.9,0.8,13.2,4.2,17.6,9.6c0.6,0.6,0.7,1.6,0,2.3c-0.6,0.6-1.6,0.7-2.3,0
	c-0.1-0.1-0.2-0.2-0.3-0.3c-3.9-4.7-9.4-7.7-15.5-8.3c-0.9-0.1-1.6-0.8-1.5-1.7C148,25.4,148.3,24.9,148.7,24.7z"/>
<path class="st0" d="M22,56.3h8.8c-0.8,3.4-2.8,6.5-5.5,8.7c-2.7,2.2-6.2,3.4-9.7,3.3C7,68.4,0.1,61.6,0,53.1c0-0.1,0-0.2,0-0.3
	c-0.1-4.1,1.5-8.1,4.4-11c2.8-2.9,6.8-4.5,10.9-4.5c3.6-0.1,7.2,1.1,10,3.4c2.8,2.2,4.7,5.3,5.4,8.8h-8.8c-1-2.6-3.5-4.2-6.3-4
	c-1.9-0.1-3.6,0.7-4.9,2.1c-1.3,1.5-2.1,3.4-2,5.3c-0.1,1.9,0.7,3.8,2,5.2c1.3,1.3,3.1,2.1,4.9,2C18.2,60.2,20.3,58.9,22,56.3z"/>
<path class="st0" d="M33.3,67.3V28.7H42V41c1.4-2.4,3.9-3.6,7.5-3.6c4.2,0,7.3,1.6,9.1,4.7c1,1.7,1.5,4.7,1.5,9v16.2h-8.7V51.5
	c0-4-1.5-6.1-4.6-6.1c-1.4-0.1-2.7,0.5-3.7,1.5c-0.8,0.8-1.2,2.2-1.2,4.3v16.1H33.3z"/>
<path class="st0" d="M72.9,28.7v6.6h-8.7v-6.6H72.9z M72.9,38.3v29h-8.7v-29L72.9,38.3z"/>
<path class="st0" d="M78,67.3V44.9h-3.2v-6.6h7.7L78,35.7c0-3,0.9-4,2.7-5.5s4.6-2.2,8.4-2.2h1.3v6.6h-1c-1.8,0-2.7,0.9-2.7,2.7v1.2
	h3.6v6.6h-3.6v22.4H78z"/>
<path class="st0" d="M105.6,67.3v-29h8.2v3.1c1.8-2.6,4.8-4.1,8-4c3.6-0.1,6.9,1.9,8.4,5.2c1.8-3.3,5.4-5.3,9.2-5.2
	c2.8-0.1,5.5,1,7.6,2.9c1.4,1.4,2.4,3.2,2.8,5.2c0.3,2,0.4,4,0.3,6.1v15.8h-8.7V51.9c0-2.3-0.3-4-1-5c-0.8-1-2-1.6-3.3-1.5
	c-1.3-0.1-2.5,0.5-3.4,1.4c-0.9,0.9-1.3,2.5-1.3,4.7v15.8h-8.7V51.5c0-4-1.5-6.1-4.4-6.1c-3.2,0-4.8,2-4.8,6.1v15.8H105.6z"/>
</svg>
